<svg xmlns="http://www.w3.org/2000/svg" xmlns:xlink="http://www.w3.org/1999/xlink" contentStyleType="text/css" data-diagram-type="CLASS" height="889px" preserveAspectRatio="none" style="width:646px;height:889px;background:#FFFFFF;" version="1.1" viewBox="0 0 646 889" width="646px" zoomAndPan="magnify"><?plantuml 1.2026.3beta4?><defs/><g><g class="title" data-source-line="5"><text fill="#000000" font-family="sans-serif" font-size="14" font-weight="bold" lengthAdjust="spacing" textLength="168.1982" x="235.6579" y="22.9951">MVP NocoDB Schema</text></g><!--class Users--><g class="entity" data-qualified-name="Users" data-source-line="7" id="ent0002"><rect fill="#F1F1F1" height="129.4844" rx="2.5" ry="2.5" style="stroke:#181818;stroke-width:0.5;" width="92.2676" x="301.55" y="44.2969"/><ellipse cx="326.0286" cy="60.2969" fill="#FFAAAA" rx="11" ry="11" style="stroke:#181818;stroke-width:1;"/><path d="M326.8723,67.0469 L324.4192,67.0469 L324.4192,56.7969 L321.2786,56.7969 L321.2786,54.6563 L330.0129,54.6563 L330.0129,56.7969 L326.8723,56.7969 L326.8723,67.0469 Z " fill="#000000"/><text fill="#000000" font-family="sans-serif" font-size="14" lengthAdjust="spacing" textLength="39.2041" x="342.1349" y="65.1436">Users</text><line style="stroke:#181818;stroke-width:0.5;" x1="302.55" x2="392.8176" y1="76.2969" y2="76.2969"/><g data-visibility-modifier="PUBLIC_FIELD"><ellipse cx="312.55" cy="89.9453" fill="none" rx="3" ry="3" style="stroke:#038048;stroke-width:1;"/></g><text fill="#000000" font-family="sans-serif" font-size="14" lengthAdjust="spacing" text-decoration="underline" textLength="13.0156" x="321.55" y="93.292">Id</text><text fill="#000000" font-family="sans-serif" font-size="14" lengthAdjust="spacing" textLength="28.5469" x="339.0158" y="93.292">[PK]</text><g data-visibility-modifier="PUBLIC_FIELD"><ellipse cx="312.55" cy="106.2422" fill="none" rx="3" ry="3" style="stroke:#038048;stroke-width:1;"/></g><text fill="#000000" font-family="sans-serif" font-size="14" lengthAdjust="spacing" textLength="38.8418" x="321.55" y="109.5889">Email</text><g data-visibility-modifier="PUBLIC_FIELD"><ellipse cx="312.55" cy="122.5391" fill="none" rx="3" ry="3" style="stroke:#038048;stroke-width:1;"/></g><text fill="#000000" font-family="sans-serif" font-size="14" lengthAdjust="spacing" textLength="66.2676" x="321.55" y="125.8857">Password</text><g data-visibility-modifier="PUBLIC_FIELD"><ellipse cx="312.55" cy="138.8359" fill="none" rx="3" ry="3" style="stroke:#038048;stroke-width:1;"/></g><text fill="#000000" font-family="sans-serif" font-size="14" lengthAdjust="spacing" textLength="41.3027" x="321.55" y="142.1826">Name</text><g data-visibility-modifier="PUBLIC_FIELD"><ellipse cx="312.55" cy="155.1328" fill="none" rx="3" ry="3" style="stroke:#038048;stroke-width:1;"/></g><text fill="#000000" font-family="sans-serif" font-size="14" lengthAdjust="spacing" textLength="30.7959" x="321.55" y="158.4795">Role</text><line style="stroke:#181818;stroke-width:0.5;" x1="302.55" x2="392.8176" y1="165.7813" y2="165.7813"/></g><!--class Projects--><g class="entity" data-qualified-name="Projects" data-source-line="15" id="ent0003"><rect fill="#F1F1F1" height="145.7813" rx="2.5" ry="2.5" style="stroke:#181818;stroke-width:0.5;" width="193.1934" x="251.08" y="250.7769"/><ellipse cx="315.5531" cy="266.7769" fill="#FFAAAA" rx="11" ry="11" style="stroke:#181818;stroke-width:1;"/><path d="M316.3969,273.5269 L313.9438,273.5269 L313.9438,263.2769 L310.8031,263.2769 L310.8031,261.1362 L319.5375,261.1362 L319.5375,263.2769 L316.3969,263.2769 L316.3969,273.5269 Z " fill="#000000"/><text fill="#000000" font-family="sans-serif" font-size="14" lengthAdjust="spacing" textLength="55.7471" x="336.0531" y="271.6236">Projects</text><line style="stroke:#181818;stroke-width:0.5;" x1="252.08" x2="443.2734" y1="282.7769" y2="282.7769"/><g data-visibility-modifier="PUBLIC_FIELD"><ellipse cx="262.08" cy="296.4253" fill="none" rx="3" ry="3" style="stroke:#038048;stroke-width:1;"/></g><text fill="#000000" font-family="sans-serif" font-size="14" lengthAdjust="spacing" text-decoration="underline" textLength="13.0156" x="271.08" y="299.772">Id</text><text fill="#000000" font-family="sans-serif" font-size="14" lengthAdjust="spacing" textLength="28.5469" x="288.5458" y="299.772">[PK]</text><g data-visibility-modifier="PUBLIC_FIELD"><ellipse cx="262.08" cy="312.7222" fill="none" rx="3" ry="3" style="stroke:#038048;stroke-width:1;"/></g><text fill="#000000" font-family="sans-serif" font-size="14" lengthAdjust="spacing" textLength="30.4336" x="271.08" y="316.0689">Title</text><g data-visibility-modifier="PUBLIC_FIELD"><ellipse cx="262.08" cy="329.0191" fill="none" rx="3" ry="3" style="stroke:#038048;stroke-width:1;"/></g><text fill="#000000" font-family="sans-serif" font-size="14" lengthAdjust="spacing" textLength="79.7344" x="271.08" y="332.3657">Description</text><g data-visibility-modifier="PUBLIC_FIELD"><ellipse cx="262.08" cy="345.3159" fill="none" rx="3" ry="3" style="stroke:#038048;stroke-width:1;"/></g><text fill="#000000" font-family="sans-serif" font-size="14" font-style="italic" lengthAdjust="spacing" textLength="69.6992" x="271.08" y="348.6626">TeacherId</text><text fill="#000000" font-family="sans-serif" font-size="14" lengthAdjust="spacing" textLength="93.0439" x="345.2294" y="348.6626">[FK -&gt; Users]</text><g data-visibility-modifier="PUBLIC_FIELD"><ellipse cx="262.08" cy="361.6128" fill="none" rx="3" ry="3" style="stroke:#038048;stroke-width:1;"/></g><text fill="#000000" font-family="sans-serif" font-size="14" lengthAdjust="spacing" textLength="44.6113" x="271.08" y="364.9595">Status</text><g data-visibility-modifier="PUBLIC_FIELD"><ellipse cx="262.08" cy="377.9097" fill="none" rx="3" ry="3" style="stroke:#038048;stroke-width:1;"/></g><text fill="#000000" font-family="sans-serif" font-size="14" lengthAdjust="spacing" textLength="91.3486" x="271.08" y="381.2564">MaxStudents</text><line style="stroke:#181818;stroke-width:0.5;" x1="252.08" x2="443.2734" y1="388.5581" y2="388.5581"/></g><!--class Teams--><g class="entity" data-qualified-name="Teams" data-source-line="24" id="ent0004"><rect fill="#F1F1F1" height="96.8906" rx="2.5" ry="2.5" style="stroke:#181818;stroke-width:0.5;" width="201.5059" x="98.93" y="506.1569"/><ellipse cx="172.095" cy="522.1569" fill="#FFAAAA" rx="11" ry="11" style="stroke:#181818;stroke-width:1;"/><path d="M172.9388,528.9069 L170.4857,528.9069 L170.4857,518.6569 L167.345,518.6569 L167.345,516.5162 L176.0794,516.5162 L176.0794,518.6569 L172.9388,518.6569 L172.9388,528.9069 Z " fill="#000000"/><text fill="#000000" font-family="sans-serif" font-size="14" lengthAdjust="spacing" textLength="46.6758" x="192.595" y="527.0036">Teams</text><line style="stroke:#181818;stroke-width:0.5;" x1="99.93" x2="299.4359" y1="538.1569" y2="538.1569"/><g data-visibility-modifier="PUBLIC_FIELD"><ellipse cx="109.93" cy="551.8053" fill="none" rx="3" ry="3" style="stroke:#038048;stroke-width:1;"/></g><text fill="#000000" font-family="sans-serif" font-size="14" lengthAdjust="spacing" text-decoration="underline" textLength="13.0156" x="118.93" y="555.152">Id</text><text fill="#000000" font-family="sans-serif" font-size="14" lengthAdjust="spacing" textLength="28.5469" x="136.3958" y="555.152">[PK]</text><g data-visibility-modifier="PUBLIC_FIELD"><ellipse cx="109.93" cy="568.1022" fill="none" rx="3" ry="3" style="stroke:#038048;stroke-width:1;"/></g><text fill="#000000" font-family="sans-serif" font-size="14" lengthAdjust="spacing" textLength="41.3027" x="118.93" y="571.4489">Name</text><g data-visibility-modifier="PUBLIC_FIELD"><ellipse cx="109.93" cy="584.3991" fill="none" rx="3" ry="3" style="stroke:#038048;stroke-width:1;"/></g><text fill="#000000" font-family="sans-serif" font-size="14" font-style="italic" lengthAdjust="spacing" textLength="61.4688" x="118.93" y="587.7457">ProjectId</text><text fill="#000000" font-family="sans-serif" font-size="14" lengthAdjust="spacing" textLength="109.5869" x="184.8489" y="587.7457">[FK -&gt; Projects]</text><line style="stroke:#181818;stroke-width:0.5;" x1="99.93" x2="299.4359" y1="595.0475" y2="595.0475"/></g><!--class TeamMembers--><g class="entity" data-qualified-name="TeamMembers" data-source-line="30" id="ent0005"><rect fill="#F1F1F1" height="113.1875" rx="2.5" ry="2.5" style="stroke:#181818;stroke-width:0.5;" width="183.3633" x="7" y="737.0869"/><ellipse cx="43.1957" cy="753.0869" fill="#FFAAAA" rx="11" ry="11" style="stroke:#181818;stroke-width:1;"/><path d="M44.0395,759.8369 L41.5863,759.8369 L41.5863,749.5869 L38.4457,749.5869 L38.4457,747.4463 L47.1801,747.4463 L47.1801,749.5869 L44.0395,749.5869 L44.0395,759.8369 Z " fill="#000000"/><text fill="#000000" font-family="sans-serif" font-size="14" lengthAdjust="spacing" textLength="104.2617" x="61.9059" y="757.9336">TeamMembers</text><line style="stroke:#181818;stroke-width:0.5;" x1="8" x2="189.3633" y1="769.0869" y2="769.0869"/><g data-visibility-modifier="PUBLIC_FIELD"><ellipse cx="18" cy="782.7353" fill="none" rx="3" ry="3" style="stroke:#038048;stroke-width:1;"/></g><text fill="#000000" font-family="sans-serif" font-size="14" lengthAdjust="spacing" text-decoration="underline" textLength="13.0156" x="27" y="786.082">Id</text><text fill="#000000" font-family="sans-serif" font-size="14" lengthAdjust="spacing" textLength="28.5469" x="44.4658" y="786.082">[PK]</text><g data-visibility-modifier="PUBLIC_FIELD"><ellipse cx="18" cy="799.0322" fill="none" rx="3" ry="3" style="stroke:#038048;stroke-width:1;"/></g><text fill="#000000" font-family="sans-serif" font-size="14" font-style="italic" lengthAdjust="spacing" textLength="52.3975" x="27" y="802.3789">TeamId</text><text fill="#000000" font-family="sans-serif" font-size="14" lengthAdjust="spacing" textLength="100.5156" x="83.8477" y="802.3789">[FK -&gt; Teams]</text><g data-visibility-modifier="PUBLIC_FIELD"><ellipse cx="18" cy="815.3291" fill="none" rx="3" ry="3" style="stroke:#038048;stroke-width:1;"/></g><text fill="#000000" font-family="sans-serif" font-size="14" font-style="italic" lengthAdjust="spacing" textLength="44.9258" x="27" y="818.6757">UserId</text><text fill="#000000" font-family="sans-serif" font-size="14" lengthAdjust="spacing" textLength="93.0439" x="76.376" y="818.6757">[FK -&gt; Users]</text><g data-visibility-modifier="PUBLIC_FIELD"><ellipse cx="18" cy="831.6259" fill="none" rx="3" ry="3" style="stroke:#038048;stroke-width:1;"/></g><text fill="#000000" font-family="sans-serif" font-size="14" lengthAdjust="spacing" textLength="83.1797" x="27" y="834.9726">RoleInTeam</text><line style="stroke:#181818;stroke-width:0.5;" x1="8" x2="189.3633" y1="842.2744" y2="842.2744"/></g><!--class Tasks--><g class="entity" data-qualified-name="Tasks" data-source-line="37" id="ent0006"><rect fill="#F1F1F1" height="162.0781" rx="2.5" ry="2.5" style="stroke:#181818;stroke-width:0.5;" width="201.5059" x="335.93" y="473.5569"/><ellipse cx="412.5198" cy="489.5569" fill="#FFAAAA" rx="11" ry="11" style="stroke:#181818;stroke-width:1;"/><path d="M413.3636,496.3069 L410.9105,496.3069 L410.9105,486.0569 L407.7698,486.0569 L407.7698,483.9162 L416.5042,483.9162 L416.5042,486.0569 L413.3636,486.0569 L413.3636,496.3069 Z " fill="#000000"/><text fill="#000000" font-family="sans-serif" font-size="14" lengthAdjust="spacing" textLength="39.8262" x="433.0198" y="494.4036">Tasks</text><line style="stroke:#181818;stroke-width:0.5;" x1="336.93" x2="536.4359" y1="505.5569" y2="505.5569"/><g data-visibility-modifier="PUBLIC_FIELD"><ellipse cx="346.93" cy="519.2053" fill="none" rx="3" ry="3" style="stroke:#038048;stroke-width:1;"/></g><text fill="#000000" font-family="sans-serif" font-size="14" lengthAdjust="spacing" text-decoration="underline" textLength="13.0156" x="355.93" y="522.552">Id</text><text fill="#000000" font-family="sans-serif" font-size="14" lengthAdjust="spacing" textLength="28.5469" x="373.3958" y="522.552">[PK]</text><g data-visibility-modifier="PUBLIC_FIELD"><ellipse cx="346.93" cy="535.5022" fill="none" rx="3" ry="3" style="stroke:#038048;stroke-width:1;"/></g><text fill="#000000" font-family="sans-serif" font-size="14" lengthAdjust="spacing" textLength="30.4336" x="355.93" y="538.8489">Title</text><g data-visibility-modifier="PUBLIC_FIELD"><ellipse cx="346.93" cy="551.7991" fill="none" rx="3" ry="3" style="stroke:#038048;stroke-width:1;"/></g><text fill="#000000" font-family="sans-serif" font-size="14" lengthAdjust="spacing" textLength="79.7344" x="355.93" y="555.1457">Description</text><g data-visibility-modifier="PUBLIC_FIELD"><ellipse cx="346.93" cy="568.0959" fill="none" rx="3" ry="3" style="stroke:#038048;stroke-width:1;"/></g><text fill="#000000" font-family="sans-serif" font-size="14" lengthAdjust="spacing" textLength="62.125" x="355.93" y="571.4426">Deadline</text><g data-visibility-modifier="PUBLIC_FIELD"><ellipse cx="346.93" cy="584.3928" fill="none" rx="3" ry="3" style="stroke:#038048;stroke-width:1;"/></g><text fill="#000000" font-family="sans-serif" font-size="14" lengthAdjust="spacing" textLength="44.6113" x="355.93" y="587.7395">Status</text><g data-visibility-modifier="PUBLIC_FIELD"><ellipse cx="346.93" cy="600.6897" fill="none" rx="3" ry="3" style="stroke:#038048;stroke-width:1;"/></g><text fill="#000000" font-family="sans-serif" font-size="14" font-style="italic" lengthAdjust="spacing" textLength="61.4688" x="355.93" y="604.0364">ProjectId</text><text fill="#000000" font-family="sans-serif" font-size="14" lengthAdjust="spacing" textLength="109.5869" x="421.8489" y="604.0364">[FK -&gt; Projects]</text><g data-visibility-modifier="PUBLIC_FIELD"><ellipse cx="346.93" cy="616.9866" fill="none" rx="3" ry="3" style="stroke:#038048;stroke-width:1;"/></g><text fill="#000000" font-family="sans-serif" font-size="14" font-style="italic" lengthAdjust="spacing" textLength="73.6025" x="355.93" y="620.3332">CreatedBy</text><text fill="#000000" font-family="sans-serif" font-size="14" lengthAdjust="spacing" textLength="93.0439" x="433.9827" y="620.3332">[FK -&gt; Users]</text><line style="stroke:#181818;stroke-width:0.5;" x1="336.93" x2="536.4359" y1="627.635" y2="627.635"/></g><!--class Submissions--><g class="entity" data-qualified-name="Submissions" data-source-line="47" id="ent0007"><rect fill="#F1F1F1" height="162.0781" rx="2.5" ry="2.5" style="stroke:#181818;stroke-width:0.5;" width="169.6641" x="461.85" y="712.6369"/><ellipse cx="499.4761" cy="728.6369" fill="#FFAAAA" rx="11" ry="11" style="stroke:#181818;stroke-width:1;"/><path d="M500.3199,735.3869 L497.8667,735.3869 L497.8667,725.1369 L494.7261,725.1369 L494.7261,722.9962 L503.4605,722.9962 L503.4605,725.1369 L500.3199,725.1369 L500.3199,735.3869 Z " fill="#000000"/><text fill="#000000" font-family="sans-serif" font-size="14" lengthAdjust="spacing" textLength="87.3838" x="518.5042" y="733.4836">Submissions</text><line style="stroke:#181818;stroke-width:0.5;" x1="462.85" x2="630.5141" y1="744.6369" y2="744.6369"/><g data-visibility-modifier="PUBLIC_FIELD"><ellipse cx="472.85" cy="758.2853" fill="none" rx="3" ry="3" style="stroke:#038048;stroke-width:1;"/></g><text fill="#000000" font-family="sans-serif" font-size="14" lengthAdjust="spacing" text-decoration="underline" textLength="13.0156" x="481.85" y="761.632">Id</text><text fill="#000000" font-family="sans-serif" font-size="14" lengthAdjust="spacing" textLength="28.5469" x="499.3158" y="761.632">[PK]</text><g data-visibility-modifier="PUBLIC_FIELD"><ellipse cx="472.85" cy="774.5822" fill="none" rx="3" ry="3" style="stroke:#038048;stroke-width:1;"/></g><text fill="#000000" font-family="sans-serif" font-size="14" font-style="italic" lengthAdjust="spacing" textLength="45.5479" x="481.85" y="777.9289">TaskId</text><text fill="#000000" font-family="sans-serif" font-size="14" lengthAdjust="spacing" textLength="93.666" x="531.848" y="777.9289">[FK -&gt; Tasks]</text><g data-visibility-modifier="PUBLIC_FIELD"><ellipse cx="472.85" cy="790.8791" fill="none" rx="3" ry="3" style="stroke:#038048;stroke-width:1;"/></g><text fill="#000000" font-family="sans-serif" font-size="14" font-style="italic" lengthAdjust="spacing" textLength="44.9258" x="481.85" y="794.2257">UserId</text><text fill="#000000" font-family="sans-serif" font-size="14" lengthAdjust="spacing" textLength="93.0439" x="531.226" y="794.2257">[FK -&gt; Users]</text><g data-visibility-modifier="PUBLIC_FIELD"><ellipse cx="472.85" cy="807.1759" fill="none" rx="3" ry="3" style="stroke:#038048;stroke-width:1;"/></g><text fill="#000000" font-family="sans-serif" font-size="14" lengthAdjust="spacing" textLength="44.3379" x="481.85" y="810.5226">FileUrl</text><g data-visibility-modifier="PUBLIC_FIELD"><ellipse cx="472.85" cy="823.4728" fill="none" rx="3" ry="3" style="stroke:#038048;stroke-width:1;"/></g><text fill="#000000" font-family="sans-serif" font-size="14" lengthAdjust="spacing" textLength="68.5918" x="481.85" y="826.8195">Comment</text><g data-visibility-modifier="PUBLIC_FIELD"><ellipse cx="472.85" cy="839.7697" fill="none" rx="3" ry="3" style="stroke:#038048;stroke-width:1;"/></g><text fill="#000000" font-family="sans-serif" font-size="14" lengthAdjust="spacing" textLength="42.6836" x="481.85" y="843.1164">Grade</text><g data-visibility-modifier="PUBLIC_FIELD"><ellipse cx="472.85" cy="856.0666" fill="none" rx="3" ry="3" style="stroke:#038048;stroke-width:1;"/></g><text fill="#000000" font-family="sans-serif" font-size="14" lengthAdjust="spacing" textLength="67.4365" x="481.85" y="859.4132">Feedback</text><line style="stroke:#181818;stroke-width:0.5;" x1="462.85" x2="630.5141" y1="866.715" y2="866.715"/></g><!--link Users to Projects--><g class="link" data-entity-1="ent0002" data-entity-2="ent0003" data-link-type="crowfoot" data-source-line="57" id="lnk8"><path codeLine="57" d="M347.68,182.1269 C347.68,206.2069 347.68,207.7569 347.68,232.5269" fill="none" id="Users-Projects" style="stroke:#181818;stroke-width:1;"/><line style="stroke:#181818;stroke-width:1;" x1="343.68" x2="351.68" y1="178.1269" y2="178.1269"/><line style="stroke:#181818;stroke-width:1;" x1="343.68" x2="351.68" y1="181.1269" y2="181.1269"/><line style="stroke:#181818;stroke-width:1;" x1="347.68" x2="347.68" y1="182.1269" y2="174.1269"/><line style="stroke:#181818;stroke-width:1;" x1="347.68" x2="353.68" y1="242.5269" y2="250.5269"/><line style="stroke:#181818;stroke-width:1;" x1="347.68" x2="341.68" y1="242.5269" y2="250.5269"/><line style="stroke:#181818;stroke-width:1;" x1="347.68" x2="347.68" y1="242.5269" y2="250.5269"/><ellipse cx="347.68" cy="236.5269" fill="none" rx="4" ry="4" style="stroke:#181818;stroke-width:1;"/><text fill="#000000" font-family="sans-serif" font-size="13" lengthAdjust="spacing" textLength="73.728" x="348.68" y="216.8438">&#1087;&#1088;&#1077;&#1087;&#1086;&#1076;&#1072;&#1077;&#1090;</text></g><!--link Users to TeamMembers--><g class="link" data-entity-1="ent0002" data-entity-2="ent0005" data-link-type="crowfoot" data-source-line="58" id="lnk9"><path codeLine="58" d="M295.4316,158.191 C230.8316,220.941 122.97,339.8069 81.68,473.5569 C54.23,562.4869 66.2181,654.3116 80.3881,719.1716" fill="none" id="Users-TeamMembers" style="stroke:#181818;stroke-width:1;"/><line style="stroke:#181818;stroke-width:1;" x1="295.5137" x2="301.0878" y1="152.5347" y2="158.2731"/><line style="stroke:#181818;stroke-width:1;" x1="293.3618" x2="298.9359" y1="154.625" y2="160.3634"/><line style="stroke:#181818;stroke-width:1;" x1="295.4316" x2="301.17" y1="158.191" y2="152.6169"/><line style="stroke:#181818;stroke-width:1;" x1="82.5225" x2="90.0917" y1="728.9412" y2="735.4763"/><line style="stroke:#181818;stroke-width:1;" x1="82.5225" x2="78.3683" y1="728.9412" y2="738.0375"/><line style="stroke:#181818;stroke-width:1;" x1="82.5225" x2="84.23" y1="728.9412" y2="736.7569"/><ellipse cx="81.2419" cy="723.0795" fill="none" rx="4" ry="4" style="stroke:#181818;stroke-width:1;"/><text fill="#000000" font-family="sans-serif" font-size="13" lengthAdjust="spacing" textLength="68.9863" x="99.68" y="439.6238">&#1091;&#1095;&#1072;&#1089;&#1090;&#1074;&#1091;&#1077;&#1090;</text></g><!--link Projects to Teams--><g class="link" data-entity-1="ent0003" data-entity-2="ent0004" data-link-type="crowfoot" data-source-line="59" id="lnk10"><path codeLine="59" d="M296.7158,403.5046 C273.7458,439.0246 260.8112,459.0399 240.4312,490.5699" fill="none" id="Projects-Teams" style="stroke:#181818;stroke-width:1;"/><line style="stroke:#181818;stroke-width:1;" x1="295.529" x2="302.2468" y1="397.9736" y2="402.3178"/><line style="stroke:#181818;stroke-width:1;" x1="293.9" x2="300.6177" y1="400.4928" y2="404.837"/><line style="stroke:#181818;stroke-width:1;" x1="296.7158" x2="301.06" y1="403.5046" y2="396.7869"/><line style="stroke:#181818;stroke-width:1;" x1="235.0027" x2="235.699" y1="498.9682" y2="508.9439"/><line style="stroke:#181818;stroke-width:1;" x1="235.0027" x2="225.621" y1="498.9682" y2="502.4298"/><line style="stroke:#181818;stroke-width:1;" x1="235.0027" x2="230.66" y1="498.9682" y2="505.6869"/><ellipse cx="238.2598" cy="493.9292" fill="none" rx="4" ry="4" style="stroke:#181818;stroke-width:1;"/><text fill="#000000" font-family="sans-serif" font-size="13" lengthAdjust="spacing" textLength="41.8247" x="279.68" y="439.6238">&#1080;&#1084;&#1077;&#1077;&#1090;</text></g><!--link Teams to TeamMembers--><g class="link" data-entity-1="ent0004" data-entity-2="ent0005" data-link-type="crowfoot" data-source-line="60" id="lnk11"><path codeLine="60" d="M176.2259,610.6474 C159.8159,649.1874 146.8656,679.5873 129.5756,720.1673" fill="none" id="Teams-TeamMembers" style="stroke:#181818;stroke-width:1;"/><line style="stroke:#181818;stroke-width:1;" x1="174.1127" x2="181.4732" y1="605.4001" y2="608.5342"/><line style="stroke:#181818;stroke-width:1;" x1="172.9374" x2="180.298" y1="608.1603" y2="611.2944"/><line style="stroke:#181818;stroke-width:1;" x1="176.2259" x2="179.36" y1="610.6474" y2="603.2869"/><line style="stroke:#181818;stroke-width:1;" x1="125.6558" x2="128.0399" y1="729.3671" y2="739.0787"/><line style="stroke:#181818;stroke-width:1;" x1="125.6558" x2="117.0001" y1="729.3671" y2="734.375"/><line style="stroke:#181818;stroke-width:1;" x1="125.6558" x2="122.52" y1="729.3671" y2="736.7269"/><ellipse cx="128.0077" cy="723.8472" fill="none" rx="4" ry="4" style="stroke:#181818;stroke-width:1;"/><text fill="#000000" font-family="sans-serif" font-size="13" lengthAdjust="spacing" textLength="65.9839" x="153.68" y="678.7038">&#1074;&#1082;&#1083;&#1102;&#1095;&#1072;&#1077;&#1090;</text></g><!--link Projects to Tasks--><g class="link" data-entity-1="ent0003" data-entity-2="ent0006" data-link-type="crowfoot" data-source-line="61" id="lnk12"><path codeLine="61" d="M378.6194,404.243 C388.0494,428.493 389.1982,431.4599 398.8582,456.3099" fill="none" id="Projects-Tasks" style="stroke:#181818;stroke-width:1;"/><line style="stroke:#181818;stroke-width:1;" x1="373.4417" x2="380.8978" y1="401.9646" y2="399.0652"/><line style="stroke:#181818;stroke-width:1;" x1="374.5289" x2="381.985" y1="404.7607" y2="401.8612"/><line style="stroke:#181818;stroke-width:1;" x1="378.6194" x2="375.72" y1="404.243" y2="396.7869"/><line style="stroke:#181818;stroke-width:1;" x1="402.4814" x2="410.9723" y1="465.6304" y2="470.913"/><line style="stroke:#181818;stroke-width:1;" x1="402.4814" x2="399.7877" y1="465.6304" y2="475.2608"/><line style="stroke:#181818;stroke-width:1;" x1="402.4814" x2="405.38" y1="465.6304" y2="473.0869"/><ellipse cx="400.3075" cy="460.0381" fill="none" rx="4" ry="4" style="stroke:#181818;stroke-width:1;"/><text fill="#000000" font-family="sans-serif" font-size="13" lengthAdjust="spacing" textLength="68.0723" x="393.68" y="439.6238">&#1089;&#1086;&#1076;&#1077;&#1088;&#1078;&#1080;&#1090;</text></g><!--link Tasks to Submissions--><g class="link" data-entity-1="ent0006" data-entity-2="ent0007" data-link-type="crowfoot" data-source-line="62" id="lnk13"><path codeLine="62" d="M477.2883,643.1232 C488.7583,667.8332 490.4314,671.4601 501.9014,696.1701" fill="none" id="Tasks-Submissions" style="stroke:#181818;stroke-width:1;"/><line style="stroke:#181818;stroke-width:1;" x1="471.976" x2="479.2323" y1="641.1792" y2="637.8109"/><line style="stroke:#181818;stroke-width:1;" x1="473.2391" x2="480.4954" y1="643.9003" y2="640.532"/><line style="stroke:#181818;stroke-width:1;" x1="477.2883" x2="473.92" y1="643.1232" y2="635.8669"/><line style="stroke:#181818;stroke-width:1;" x1="506.1117" x2="514.9223" y1="705.2405" y2="709.9707"/><line style="stroke:#181818;stroke-width:1;" x1="506.1117" x2="504.0377" y1="705.2405" y2="715.0231"/><line style="stroke:#181818;stroke-width:1;" x1="506.1117" x2="509.48" y1="705.2405" y2="712.4969"/><ellipse cx="503.5855" cy="699.7983" fill="none" rx="4" ry="4" style="stroke:#181818;stroke-width:1;"/><text fill="#000000" font-family="sans-serif" font-size="13" lengthAdjust="spacing" textLength="63.6733" x="496.68" y="678.7038">&#1087;&#1086;&#1083;&#1091;&#1095;&#1072;&#1077;&#1090;</text></g><!--link Users to Submissions--><g class="link" data-entity-1="ent0002" data-entity-2="ent0007" data-link-type="crowfoot" data-source-line="63" id="lnk14"><path codeLine="63" d="M399.5626,165.9971 C411.8226,179.8471 419.44,189.1169 430.68,203.7769 C510.95,308.5169 524.07,345.1969 554.68,473.5569 C576.29,564.1469 577.86,589.9569 568.68,682.6369 C567.72,692.3369 569.2678,684.6832 567.5978,694.6732" fill="none" id="Users-Submissions" style="stroke:#181818;stroke-width:1;"/><line style="stroke:#181818;stroke-width:1;" x1="393.9162" x2="399.9064" y1="165.6533" y2="160.3507"/><line style="stroke:#181818;stroke-width:1;" x1="395.9046" x2="401.8949" y1="167.8996" y2="162.5971"/><line style="stroke:#181818;stroke-width:1;" x1="399.5626" x2="394.26" y1="165.9971" y2="160.0069"/><line style="stroke:#181818;stroke-width:1;" x1="565.949" x2="570.5479" y1="704.5364" y2="713.4162"/><line style="stroke:#181818;stroke-width:1;" x1="565.949" x2="558.7121" y1="704.5364" y2="711.4376"/><line style="stroke:#181818;stroke-width:1;" x1="565.949" x2="564.63" y1="704.5364" y2="712.4269"/><ellipse cx="566.9383" cy="698.6185" fill="none" rx="4" ry="4" style="stroke:#181818;stroke-width:1;"/><text fill="#000000" font-family="sans-serif" font-size="13" lengthAdjust="spacing" textLength="39.6729" x="548.68" y="439.6238">&#1089;&#1076;&#1072;&#1077;&#1090;</text></g><?plantuml-src fLB1Jjj04BtxAmPw8Q9HxrLagP2wGYWeQa8l5Qeszj1ku_MYtRMQ22eLE73hjo3K85IgyWlhF-hkE36EcmfGVHfxthnvxtdM4Zpa6O9XenGt9Ys8KwOrJA3JWOtXysTHzCezBGZ3O6qEFL9SC3NzCCQf7-ZauQJp8h_l7qg5_6DMzRdlyp0833SfGkzT7_PaBBjRC8W_eM2kGSltDIhTWkC0O7DfoKxIWlVztGDgl1QCfrJrdT0lKYNqiiS4Kl5MfXXyNN3sbVoCiNcOTkYrKTL57Ij-PBZCwBrkPuZCILOq6Ur2EmGINL8C33EvfhB79WEJ9vWPVQ_53Ok7XLH6wdldDcfx5yOEblbxA4QFIR5XIjIOIURVA6zqjM-V-4xcnsfQc1x_J-XTP4dgZgaPx6D3QMAt5JA3oTQqQQ1IFCX7Wclj13mnFUUqdfut_fJq8fxYlYelUbiAuMw6wZUA9QNz234PiNZijT8Wd9oqs_AuiWilOTtU5T_ipDxPt_Q7lRIpucnz6Lox3eylpeiBUrcS5cVsgZWlyHLVRQGalx6_73c1oe-hIUsL_MblY--U-X-KFXxQVqfAPqxrjRqXOchDSRM_KRfpwDjIymfl3RJZNcJm1m00?></g></svg>